# xmcd CD database file
#
# Track frame offsets:
#	150
#	14536
#	28329
#	42005
#	55897
#	69553
#	82315
#	96567
#	110299
#	124616
#	138007
#	151202
#	165436
#	179405
#	193544
#	206217
#	219076
#	232067
#	244295
#	255795
#	269790
#	281350
#
# Disc length: 3868 seconds
#
# Revision: 2
# Processed by: cddbd v1.5.2PL0 Copyright (c) Steve Scherf et al.
# Submitted via: CDex 1.51
#
DISCID=3e0f1a16
DTITLE=Woody Herman - [CD 05-10] - Early Autumn
DYEAR=1900
DGENRE=Jazz
TTITLE0=Four Brothers  [1947]
TTITLE1=Swing Low Sweet Clarinet  [1947]
TTITLE2=My Pal Gonzales  [1947]
TTITLE3=P.S. I Love You  [1947]
TTITLE4=That's Right  [1948]
TTITLE5=Lemon Drop  [1948]
TTITLE6=I got It Bad  [1948]
TTITLE7=I Ain't Gonna Wait Too Long  [1948]
TTITLE8=Early Autumn  [1948]
TTITLE9=Keeper Of The Flame  [1948]
TTITLE10=The Crickets  [1949]
TTITLE11=More Moon  [1949]
TTITLE12=Detour Ahead  [1949]
TTITLE13=Jamaica Rhumba  [1949]
TTITLE14=Not Really The Blues  [1949]
TTITLE15=The Great Lie  [1949]
TTITLE16=Tenderly [1949]
TTITLE17=Lollypop  [1949]
TTITLE18=You Rascal You  [1949]
TTITLE19=Rhapsody In Wood  [1949]
TTITLE20=Calico Sal  [1950]
TTITLE21=Jelly Bean  [1950]
EXTD=
EXTT0=
EXTT1=
EXTT2=
EXTT3=
EXTT4=
EXTT5=
EXTT6=
EXTT7=
EXTT8=
EXTT9=
EXTT10=
EXTT11=
EXTT12=
EXTT13=
EXTT14=
EXTT15=
EXTT16=
EXTT17=
EXTT18=
EXTT19=
EXTT20=
EXTT21=
PLAYORDER=
